<svg viewBox="0 0 323 56" fill="none" xmlns="http://www.w3.org/2000/svg"><path d="M23.5789 6.50666C23.7918 6.56684 23.9388 6.76111 23.9388 6.98232V48.9126C23.9388 49.1337 23.7919 49.328 23.5791 49.3882L0.628885 55.8827C0.313395 55.972 0 55.735 0 55.4071V0.494589C0 0.166767 0.313295-0.0702407 0.628755 0.0189359L23.5789 6.50666Z" fill="white"/><path d="M39.9726 6.1051C40.1486 6.18547 40.2616 6.36121 40.2616 6.55476V48.7117C40.2616 48.8981 40.1567 49.0687 39.9904 49.1528L27.7749 55.3298C27.4461 55.4961 27.0576 55.2572 27.0576 54.8887V0.978793C27.0576 0.618959 27.4298 0.37971 27.7571 0.529132L39.9726 6.1051Z" fill="white"/><path d="M53.0119 6.60987C53.0119 6.46237 52.9461 6.32258 52.8323 6.22868L48.7673 2.87283C48.445 2.60671 47.9583 2.836 47.9583 3.25401V52.6657C47.9583 53.0803 48.4379 53.3107 48.7615 53.0517L52.8265 49.7985C52.9437 49.7047 53.0119 49.5627 53.0119 49.4126V6.60987Z" fill="white"/><path d="M322.12 30.6787V26.7553H302.787V32.6689H314.841C314.728 40.1747 308.871 43.1883 302.161 43.3021C293.689 43.3021 288.173 37.2747 288.173 28.0062C288.173 18.7377 293.689 12.7104 302.161 12.7104C310.861 12.7104 314.159 19.9318 314.159 19.9318L320.357 16.577C320.357 16.577 315.581 6.34187 302.161 6.34187C289.652 6.34187 280.838 15.2692 280.838 28.0062C280.838 40.7433 289.652 49.7274 302.161 49.7274C314.33 49.6137 322.12 42.3923 322.12 30.6787Z" fill="white"/><path d="M277.308 26.7553V30.6787C277.308 42.3923 269.518 49.6137 257.349 49.7274C244.84 49.7274 236.026 40.7433 236.026 28.0062C236.026 15.2692 244.84 6.34187 257.349 6.34187C270.769 6.34187 275.545 16.577 275.545 16.577L269.347 19.9318C269.347 19.9318 266.049 12.7104 257.349 12.7104C248.877 12.7104 243.361 18.7377 243.361 28.0062C243.361 37.2747 248.877 43.3021 257.349 43.3021C264.059 43.1883 269.916 40.1747 270.03 32.6689H257.975V26.7553H277.308Z" fill="white"/><path d="M232.531 13.0518V6.74012H204.271V49.2728H232.531V42.9042H211.606V30.5084H229.518V24.1967H211.606V13.0518H232.531Z" fill="white"/><path d="M190.724 6.74012H198.059V49.2728H190.724V6.74012Z" fill="white"/><path d="M185.178 13.0518V6.74012H154.587V13.0518H166.243V49.2728H173.636V13.0518H185.178Z" fill="white"/><path d="M150.195 6.74012V49.2728H142.007L122.503 19.0791V49.2728H115.168V6.74012H123.299L142.803 36.8769V6.74012H150.195Z" fill="white"/><path fill-rule="evenodd" clip-rule="evenodd" d="M110.524 49.2728L95.0007 6.74012H86.1303L70.2658 49.2728H78.0559L82.2637 38.1278H98.6967L102.734 49.2728H110.524ZM96.3654 31.8162H84.595L90.5655 15.8949L96.3654 31.8162Z" fill="white"/></svg>
