<svg viewBox="0 0 97 102" fill="none" xmlns="http://www.w3.org/2000/svg"><path d="M43.4326 12.5069C43.4326 12.3714 43.3426 12.2524 43.2122 12.2155L0.385298 0.108889C0.192039 0.0542569 0.000106037 0.199455 0.000106037 0.400288L0.000106037 101.6C0.000106037 101.8 0.192101 101.946 0.385379 101.891L43.2123 89.7717C43.3426 89.7348 43.4326 89.6158 43.4326 89.4803L43.4326 12.5069Z" fill="white"/><path d="M73.0459 11.7985C73.0459 11.68 72.9767 11.5723 72.8688 11.523L49.5181 0.864205C49.3176 0.772665 49.0896 0.919236 49.0896 1.13968L49.0896 100.839C49.0896 101.065 49.3276 101.212 49.529 101.11L72.8797 89.3019C72.9816 89.2503 73.0459 89.1459 73.0459 89.0316L73.0459 11.7985Z" fill="white"/><path d="M96.1802 12.0026C96.1802 11.9123 96.1398 11.8266 96.0701 11.7691L87.507 4.69979C87.3095 4.53676 87.0114 4.67723 87.0114 4.93332L87.0114 97.0786C87.0114 97.3326 87.3051 97.4737 87.5034 97.3151L96.0666 90.462C96.1384 90.4045 96.1802 90.3176 96.1802 90.2256L96.1802 12.0026Z" fill="white"/></svg>
